<?xml version="1.0" encoding="UTF-8"?>
<!DOCTYPE svg PUBLIC "-//W3C//DTD SVG 1.1//EN" "http://www.w3.org/Graphics/SVG/1.1/DTD/svg11.dtd">
<!-- Creator: CorelDRAW (Versão OEM) -->
<svg xmlns="http://www.w3.org/2000/svg" xml:space="preserve" width="10mm" height="9.6475mm" version="1.1" style="shape-rendering:geometricPrecision; text-rendering:geometricPrecision; image-rendering:optimizeQuality; fill-rule:evenodd; clip-rule:evenodd"
viewBox="0 0 15.74 15.19"
 xmlns:xlink="http://www.w3.org/1999/xlink"
 xmlns:xodm="http://www.corel.com/coreldraw/odm/2003">
 <defs>
  <style type="text/css">
   <![CDATA[
    .fil1 {fill:#FFFAF2;fill-rule:nonzero}
    .fil31 {fill:#F89E43;fill-rule:nonzero}
    .fil11 {fill:#EDDBCB;fill-rule:nonzero}
    .fil26 {fill:#E9AD73;fill-rule:nonzero}
    .fil0 {fill:#413231;fill-rule:nonzero}
    .fil17 {fill:url(#id0)}
    .fil35 {fill:url(#id1)}
    .fil43 {fill:url(#id2)}
    .fil38 {fill:url(#id3)}
    .fil27 {fill:url(#id4)}
    .fil2 {fill:url(#id5)}
    .fil40 {fill:url(#id6)}
    .fil25 {fill:url(#id7)}
    .fil42 {fill:url(#id8)}
    .fil24 {fill:url(#id9)}
    .fil8 {fill:url(#id10)}
    .fil23 {fill:url(#id11)}
    .fil15 {fill:url(#id12)}
    .fil4 {fill:url(#id13)}
    .fil19 {fill:url(#id14)}
    .fil6 {fill:url(#id15)}
    .fil10 {fill:url(#id16)}
    .fil5 {fill:url(#id17)}
    .fil29 {fill:url(#id18)}
    .fil12 {fill:url(#id19)}
    .fil44 {fill:url(#id20)}
    .fil28 {fill:url(#id21)}
    .fil41 {fill:url(#id22)}
    .fil13 {fill:url(#id23)}
    .fil34 {fill:url(#id24)}
    .fil37 {fill:url(#id25)}
    .fil16 {fill:url(#id26)}
    .fil14 {fill:url(#id27)}
    .fil22 {fill:url(#id28)}
    .fil39 {fill:url(#id29)}
    .fil30 {fill:url(#id30)}
    .fil20 {fill:url(#id31)}
    .fil21 {fill:url(#id32)}
    .fil3 {fill:url(#id33)}
    .fil7 {fill:url(#id34)}
    .fil32 {fill:url(#id35)}
    .fil36 {fill:url(#id36)}
    .fil18 {fill:url(#id37)}
    .fil9 {fill:url(#id38)}
    .fil33 {fill:url(#id39)}
   ]]>
  </style>
  <linearGradient id="id0" gradientUnits="userSpaceOnUse" x1="7.89" y1="12.2" x2="7.13" y2="9.55">
   <stop offset="0" style="stop-opacity:1; stop-color:#C15A39"/>
   <stop offset="0.129412" style="stop-opacity:1; stop-color:#C15A39"/>
   <stop offset="0.541176" style="stop-opacity:1; stop-color:#F79740"/>
   <stop offset="1" style="stop-opacity:1; stop-color:#D86C38"/>
  </linearGradient>
  <linearGradient id="id1" gradientUnits="userSpaceOnUse" x1="12.74" y1="9.94" x2="10.92" y2="9.39">
   <stop offset="0" style="stop-opacity:1; stop-color:#C15A39"/>
   <stop offset="0.478431" style="stop-opacity:1; stop-color:#F79740"/>
   <stop offset="1" style="stop-opacity:1; stop-color:#D86C38"/>
  </linearGradient>
  <linearGradient id="id2" gradientUnits="userSpaceOnUse" x1="8.16" y1="10" x2="7.19" y2="9.28">
   <stop offset="0" style="stop-opacity:1; stop-color:#C15A39"/>
   <stop offset="0.6" style="stop-opacity:1; stop-color:#D86C38"/>
   <stop offset="1" style="stop-opacity:1; stop-color:#D86C38"/>
  </linearGradient>
  <linearGradient id="id3" gradientUnits="userSpaceOnUse" xlink:href="#id2" x1="14.21" y1="9.6" x2="13.34" y2="8.94">
  </linearGradient>
  <linearGradient id="id4" gradientUnits="userSpaceOnUse" xlink:href="#id2" x1="3.87" y1="2.12" x2="4.63" y2="2.7">
  </linearGradient>
  <linearGradient id="id5" gradientUnits="userSpaceOnUse" xlink:href="#id0" x1="1.86" y1="7.28" x2="1.77" y2="8.8">
  </linearGradient>
  <linearGradient id="id6" gradientUnits="userSpaceOnUse" xlink:href="#id2" x1="13.65" y1="9.87" x2="12.93" y2="9.32">
  </linearGradient>
  <linearGradient id="id7" gradientUnits="userSpaceOnUse" xlink:href="#id2" x1="3.99" y1="1.54" x2="4.88" y2="2.25">
  </linearGradient>
  <linearGradient id="id8" gradientUnits="userSpaceOnUse" xlink:href="#id2" x1="14.43" y1="9.18" x2="13.47" y2="8.44">
  </linearGradient>
  <linearGradient id="id9" gradientUnits="userSpaceOnUse" x1="3.1" y1="4.82" x2="6.21" y2="7.86">
   <stop offset="0" style="stop-opacity:1; stop-color:#C15A39"/>
   <stop offset="0.0784314" style="stop-opacity:1; stop-color:#C15A39"/>
   <stop offset="0.611765" style="stop-opacity:1; stop-color:#F79740"/>
   <stop offset="1" style="stop-opacity:1; stop-color:#D86C38"/>
  </linearGradient>
  <linearGradient id="id10" gradientUnits="userSpaceOnUse" xlink:href="#id0" x1="1.9" y1="8.73" x2="2.48" y2="9.88">
  </linearGradient>
  <linearGradient id="id11" gradientUnits="userSpaceOnUse" x1="3.44" y1="4.08" x2="5.38" y2="5.63">
   <stop offset="0" style="stop-opacity:1; stop-color:#C15A39"/>
   <stop offset="0.129412" style="stop-opacity:1; stop-color:#C15A39"/>
   <stop offset="0.670588" style="stop-opacity:1; stop-color:#F79740"/>
   <stop offset="1" style="stop-opacity:1; stop-color:#D86C38"/>
  </linearGradient>
  <linearGradient id="id12" gradientUnits="userSpaceOnUse" xlink:href="#id2" x1="8.66" y1="10.84" x2="7.37" y2="9.81">
  </linearGradient>
  <linearGradient id="id13" gradientUnits="userSpaceOnUse" xlink:href="#id0" x1="1.58" y1="6.92" x2="3.28" y2="8.29">
  </linearGradient>
  <linearGradient id="id14" gradientUnits="userSpaceOnUse" xlink:href="#id0" x1="7.3" y1="12.51" x2="5.51" y2="11.1">
  </linearGradient>
  <linearGradient id="id15" gradientUnits="userSpaceOnUse" xlink:href="#id0" x1="1.42" y1="8.12" x2="1.69" y2="9.21">
  </linearGradient>
  <linearGradient id="id16" gradientUnits="userSpaceOnUse" xlink:href="#id0" x1="3.37" y1="9.65" x2="4.5" y2="10.51">
  </linearGradient>
  <linearGradient id="id17" gradientUnits="userSpaceOnUse" xlink:href="#id2" x1="4.14" y1="7.26" x2="5.44" y2="8.29">
  </linearGradient>
  <linearGradient id="id18" gradientUnits="userSpaceOnUse" xlink:href="#id2" x1="4.28" y1="1.06" x2="5.29" y2="1.8">
  </linearGradient>
  <linearGradient id="id19" gradientUnits="userSpaceOnUse" xlink:href="#id0" x1="9.22" y1="13.05" x2="7.59" y2="13.55">
  </linearGradient>
  <linearGradient id="id20" gradientUnits="userSpaceOnUse" xlink:href="#id2" x1="8.72" y1="10.34" x2="7.87" y2="9.65">
  </linearGradient>
  <linearGradient id="id21" gradientUnits="userSpaceOnUse" xlink:href="#id2" x1="3.9" y1="2.15" x2="4.6" y2="2.72">
  </linearGradient>
  <linearGradient id="id22" gradientUnits="userSpaceOnUse" xlink:href="#id2" x1="14.62" y1="9.24" x2="13.68" y2="8.47">
  </linearGradient>
  <linearGradient id="id23" gradientUnits="userSpaceOnUse" xlink:href="#id0" x1="9.54" y1="12.6" x2="8.47" y2="10.76">
  </linearGradient>
  <linearGradient id="id24" gradientUnits="userSpaceOnUse" xlink:href="#id1" x1="10.88" y1="8.79" x2="7.63" y2="8.83">
  </linearGradient>
  <linearGradient id="id25" gradientUnits="userSpaceOnUse" xlink:href="#id9" x1="11.25" y1="11.29" x2="7.47" y2="8.94">
  </linearGradient>
  <linearGradient id="id26" gradientUnits="userSpaceOnUse" xlink:href="#id0" x1="8.46" y1="13.67" x2="7.32" y2="13.66">
  </linearGradient>
  <linearGradient id="id27" gradientUnits="userSpaceOnUse" xlink:href="#id0" x1="9.61" y1="13.24" x2="7.89" y2="11.89">
  </linearGradient>
  <linearGradient id="id28" gradientUnits="userSpaceOnUse" xlink:href="#id1" x1="4.06" y1="3.05" x2="5.02" y2="4.68">
  </linearGradient>
  <linearGradient id="id29" gradientUnits="userSpaceOnUse" xlink:href="#id2" x1="13.68" y1="9.89" x2="12.96" y2="9.29">
  </linearGradient>
  <linearGradient id="id30" gradientUnits="userSpaceOnUse" xlink:href="#id2" x1="4.29" y1="1.08" x2="5.3" y2="1.89">
  </linearGradient>
  <linearGradient id="id31" gradientUnits="userSpaceOnUse" xlink:href="#id0" x1="6.5" y1="12.14" x2="5.45" y2="11.24">
  </linearGradient>
  <linearGradient id="id32" gradientUnits="userSpaceOnUse" xlink:href="#id1" x1="5.6" y1="4.59" x2="6.32" y2="7.75">
  </linearGradient>
  <linearGradient id="id33" gradientUnits="userSpaceOnUse" xlink:href="#id0" x1="2.21" y1="6.78" x2="4.25" y2="7.43">
  </linearGradient>
  <linearGradient id="id34" gradientUnits="userSpaceOnUse" xlink:href="#id0" x1="3" y1="8.34" x2="5.76" y2="8.48">
  </linearGradient>
  <linearGradient id="id35" gradientUnits="userSpaceOnUse" xlink:href="#id2" x1="5.04" y1="7.53" x2="5.95" y2="8.32">
  </linearGradient>
  <linearGradient id="id36" gradientUnits="userSpaceOnUse" xlink:href="#id11" x1="11.89" y1="10.77" x2="9.93" y2="9.23">
  </linearGradient>
  <linearGradient id="id37" gradientUnits="userSpaceOnUse" xlink:href="#id0" x1="7.77" y1="13.35" x2="6.5" y2="13.05">
  </linearGradient>
  <linearGradient id="id38" gradientUnits="userSpaceOnUse" xlink:href="#id0" x1="2.85" y1="9.07" x2="4.64" y2="10.38">
  </linearGradient>
  <linearGradient id="id39" gradientUnits="userSpaceOnUse" xlink:href="#id2" x1="4.54" y1="7.11" x2="5.39" y2="7.79">
  </linearGradient>
 </defs>
 <g id="Camada_x0020_1">
  <metadata id="CorelCorpID_0Corel-Layer"/>
  <g id="_1820219712432">
   <path class="fil0" d="M5.52 9.77c-0.48,0.42 -1.4,1.02 -2.27,1.4 -0.58,0.25 -1.08,0.45 -1.57,0.25 -1.43,-0.6 -1.88,-3 -1.62,-3.75 0.42,-1.21 2.08,-2.11 3.62,-0.89 1.54,1.22 3.14,1.84 1.83,3z"/>
   <path class="fil1" d="M1.52 6.44c-0.02,-0.04 0.03,-0.07 0.07,-0.09 0.05,-0.02 0.08,-0.03 0.1,0.01 0.02,0.04 -0.01,0.09 -0.06,0.11 -0.05,0.02 -0.1,0.01 -0.12,-0.03z"/>
   <path class="fil1" d="M0.48 7.6c-0.04,-0.01 -0.04,-0.06 -0.03,-0.11 0.01,-0.05 0.02,-0.08 0.07,-0.08 0.04,0.01 0.07,0.06 0.06,0.11 -0.01,0.05 -0.05,0.09 -0.09,0.08z"/>
   <path class="fil1" d="M0.17 8.14c-0.04,-0.01 -0.04,-0.06 -0.03,-0.11 0.01,-0.05 0.02,-0.08 0.07,-0.08 0.04,0.01 0.07,0.06 0.06,0.11 -0.01,0.05 -0.05,0.09 -0.09,0.08z"/>
   <path class="fil1" d="M0.47 7.98c-0.04,-0.01 -0.04,-0.06 -0.03,-0.11 0.01,-0.05 0.02,-0.08 0.07,-0.08 0.04,0.01 0.07,0.06 0.06,0.11 -0.01,0.05 -0.05,0.09 -0.09,0.08z"/>
   <path class="fil1" d="M0.22 8.68c-0.04,-0.01 -0.04,-0.06 -0.03,-0.11 0.01,-0.05 0.02,-0.08 0.07,-0.08 0.04,0.01 0.07,0.06 0.06,0.11 -0.01,0.05 -0.05,0.09 -0.09,0.08z"/>
   <path class="fil1" d="M0.61 8.94c-0.04,0.02 -0.07,-0.02 -0.09,-0.07 -0.02,-0.05 -0.03,-0.08 0,-0.1 0.04,-0.02 0.09,0 0.11,0.05 0.02,0.05 0.01,0.1 -0.02,0.12z"/>
   <path class="fil1" d="M0.83 9.5c-0.04,0.02 -0.07,-0.02 -0.09,-0.07 -0.02,-0.05 -0.03,-0.08 0,-0.1 0.04,-0.02 0.09,0 0.11,0.05 0.02,0.05 0.01,0.1 -0.02,0.12z"/>
   <path class="fil1" d="M0.98 9.89c-0.03,0.03 -0.07,-0 -0.11,-0.04 -0.04,-0.04 -0.05,-0.07 -0.02,-0.1 0.03,-0.03 0.09,-0.02 0.12,0.02 0.04,0.04 0.04,0.09 0.01,0.12z"/>
   <path class="fil1" d="M0.77 10.21c-0.04,0.04 -0.1,-0.01 -0.15,-0.06 -0.05,-0.05 -0.07,-0.09 -0.03,-0.13 0.04,-0.04 0.12,-0.03 0.16,0.03 0.05,0.05 0.05,0.13 0.01,0.16z"/>
   <path class="fil1" d="M1.07 10.54c-0.04,0.04 -0.1,-0.01 -0.15,-0.06 -0.05,-0.05 -0.07,-0.09 -0.03,-0.13 0.04,-0.04 0.12,-0.03 0.16,0.03 0.05,0.05 0.05,0.13 0.01,0.16z"/>
   <path class="fil1" d="M1.55 11.07c-0.04,0.04 -0.1,-0.01 -0.15,-0.06 -0.05,-0.05 -0.07,-0.09 -0.03,-0.13 0.04,-0.04 0.12,-0.03 0.16,0.03 0.05,0.05 0.05,0.13 0.01,0.16z"/>
   <path class="fil1" d="M1.37 10.34c-0.03,0.03 -0.07,-0 -0.11,-0.04 -0.04,-0.04 -0.05,-0.07 -0.02,-0.1 0.03,-0.03 0.09,-0.02 0.12,0.02 0.04,0.04 0.04,0.09 0.01,0.12z"/>
   <path class="fil1" d="M1.33 10.73c-0.03,0.03 -0.07,-0 -0.11,-0.04 -0.04,-0.04 -0.05,-0.07 -0.02,-0.1 0.03,-0.03 0.09,-0.02 0.12,0.02 0.04,0.04 0.04,0.09 0.01,0.12z"/>
   <path class="fil1" d="M1.68 10.47c-0.03,0.03 -0.07,-0 -0.11,-0.04 -0.04,-0.04 -0.05,-0.07 -0.02,-0.1 0.03,-0.03 0.09,-0.02 0.12,0.02 0.04,0.04 0.04,0.09 0.01,0.12z"/>
   <path class="fil1" d="M0.31 9.19c-0.04,0.01 -0.06,-0.04 -0.08,-0.09 -0.01,-0.05 -0.01,-0.09 0.03,-0.1 0.04,-0.01 0.09,0.02 0.1,0.07 0.01,0.05 -0.01,0.1 -0.05,0.11z"/>
   <path class="fil1" d="M0.47 9.69c-0.04,0.02 -0.07,-0.02 -0.09,-0.07 -0.02,-0.05 -0.03,-0.08 0.01,-0.1 0.04,-0.02 0.09,0 0.11,0.05 0.02,0.05 0.01,0.1 -0.02,0.12z"/>
   <path class="fil1" d="M1.74 10.54c0,0 0.14,0.02 0.18,0.22 0.02,0.11 -0.05,0.2 -0.11,0.19 -0.08,-0.01 -0.15,-0.07 -0.2,-0.17 -0.11,-0.25 0.13,-0.23 0.13,-0.23z"/>
   <path class="fil1" d="M1.76 11.18c0,0 0.09,-0.03 0.17,0.08 0.04,0.06 0.02,0.13 -0.02,0.15 -0.05,0.02 -0.11,-0 -0.17,-0.05 -0.14,-0.12 0.02,-0.18 0.02,-0.18z"/>
   <path class="fil1" d="M2.14 11.02c0,0 0.16,-0.06 0.31,0.11 0.08,0.1 0.07,0.23 0,0.26 -0.09,0.04 -0.2,0.02 -0.3,-0.06 -0.27,-0.19 -0.01,-0.32 -0.01,-0.32z"/>
   <path class="fil1" d="M2 6.49c-0.06,0.03 -0.1,0.07 -0.13,0.01 -0.03,-0.06 -0,-0.13 0.05,-0.16 0.06,-0.03 0.13,-0 0.16,0.05 0.03,0.06 -0.03,0.07 -0.08,0.09z"/>
   <path class="fil1" d="M1.11 7.1c-0.03,0.05 -0.05,0.11 -0.1,0.07 -0.05,-0.03 -0.07,-0.11 -0.04,-0.16 0.03,-0.05 0.11,-0.07 0.16,-0.04 0.05,0.03 0.01,0.07 -0.02,0.12z"/>
   <path class="fil1" d="M0.99 6.69c0.04,-0.05 0.06,-0.1 0.11,-0.06 0.05,0.04 0.06,0.11 0.02,0.16 -0.04,0.05 -0.11,0.06 -0.16,0.02 -0.05,-0.04 -0,-0.07 0.04,-0.12z"/>
   <path class="fil1" d="M0.57 7.04c0.04,-0.05 0.06,-0.1 0.11,-0.06 0.05,0.04 0.06,0.11 0.02,0.16 -0.04,0.05 -0.11,0.06 -0.16,0.02 -0.05,-0.04 -0,-0.07 0.04,-0.12z"/>
   <path class="fil2" d="M0.95 7.67c-0.09,0.01 -0.16,0.07 -0.18,0.16 -0.03,0.12 -0.06,0.3 -0.01,0.42 0.1,0.21 0.98,-0.01 1.47,0.03 0.18,0.02 0.5,-0.17 0.65,-0.25 0.03,-0.02 0.03,-0.06 -0.01,-0.07 -0.33,-0.07 -1.37,-0.29 -1.65,-0.29 -0.12,0 -0.21,0.01 -0.27,0.01z"/>
   <path class="fil3" d="M2.02 6.82c0,0 0.17,-0.25 0.44,-0.22 0.27,0.03 1.02,0.33 1.27,0.5 0.25,0.17 0.43,0.4 0.46,0.48 0.03,0.08 -0.04,0.12 -0.3,0.03 -0.26,-0.09 -0.83,-0.39 -1.18,-0.46 -0.36,-0.07 -0.47,-0.08 -0.6,-0.18 -0.13,-0.1 -0.08,-0.16 -0.08,-0.16z"/>
   <path class="fil4" d="M1.29 7.53c-0.07,-0.01 -0.11,-0.1 -0.07,-0.16 0.07,-0.13 0.19,-0.3 0.33,-0.33 0.21,-0.04 2.02,0.53 2.24,0.67 0.22,0.14 -0.43,0.2 -0.43,0.2l-2.07 -0.38z"/>
   <path class="fil5" d="M5.5 8.17c0.04,0.03 0.01,0.1 -0.04,0.08 -0.14,-0.04 -0.31,-0.09 -0.45,-0.17 -0.27,-0.15 -0.86,-0.68 -0.91,-0.78 -0.04,-0.09 0.01,-0.08 0.26,0.05 0.25,0.14 0.92,0.65 0.98,0.69 0.03,0.02 0.09,0.07 0.16,0.12z"/>
   <path class="fil6" d="M0.91 8.98c0.02,0.05 0.05,0.09 0.07,0.13 0.09,0.12 0.27,0.2 0.4,0.11 0.47,-0.3 0.98,-0.43 0.94,-0.53 -0.05,-0.13 -0.13,-0.25 -0.35,-0.28 -0.22,-0.02 -0.58,0.02 -0.84,0.05l-0.08 0.01c-0.11,0.01 -0.2,0.11 -0.19,0.22 0,0.08 0.02,0.18 0.05,0.28z"/>
   <path class="fil7" d="M2.47 8.58c-0.06,-0.09 -0.03,-0.2 0.06,-0.26 0.17,-0.11 0.48,-0.29 0.69,-0.31 0.1,-0.01 0.19,-0 0.27,0 0.15,0.01 0.3,-0.03 0.42,-0.12 0.03,-0.02 0.07,-0.04 0.1,-0.06 0.16,-0.05 1.24,0.39 1.46,0.53 0.22,0.14 0.42,0.22 0.38,0.27 -0.04,0.05 -1.3,0.28 -1.83,0.28 -0.53,-0 -1.05,-0.06 -1.31,-0.15 -0.12,-0.04 -0.19,-0.12 -0.24,-0.19z"/>
   <path class="fil8" d="M1.25 9.62c-0.02,-0.11 0.03,-0.21 0.13,-0.27 0.24,-0.13 0.68,-0.37 0.85,-0.43 0.24,-0.08 0.93,0.02 1.04,0.11 0.11,0.09 -0.2,0.17 -0.39,0.23 -0.19,0.06 -0.39,0.11 -0.6,0.3 -0.21,0.19 -0.33,0.42 -0.5,0.44 -0.16,0.02 -0.35,-0.01 -0.45,-0.11 -0.05,-0.05 -0.08,-0.17 -0.1,-0.27z"/>
   <path class="fil9" d="M1.87 10.33c-0.02,-0.08 0,-0.16 0.06,-0.23 0.14,-0.16 0.44,-0.45 0.59,-0.42 0.2,0.04 0.38,-0.06 0.45,-0.15 0.07,-0.09 0.25,-0.31 0.44,-0.4 0.19,-0.09 2.67,-0.51 2.5,-0.23 -0.07,0.12 -0.69,0.38 -1,0.52 -0.32,0.14 -0.99,0.32 -1.34,0.52 -0.34,0.21 -1.27,0.81 -1.27,0.81 0,0 -0.18,0.06 -0.26,-0.09 -0.07,-0.14 -0.13,-0.21 -0.16,-0.34z"/>
   <path class="fil10" d="M2.46 10.8c-0.08,0.05 -0.1,0.17 -0.04,0.24 0.03,0.03 0.06,0.06 0.11,0.09 0.19,0.09 1.58,-0.83 2.07,-1.19 0.32,-0.23 0.68,-0.49 0.91,-0.65 0.03,-0.02 0,-0.07 -0.03,-0.05 -0.29,0.11 -0.77,0.3 -1.01,0.42 -0.35,0.17 -0.78,0.31 -1.24,0.63 -0.32,0.22 -0.63,0.42 -0.78,0.52z"/>
   <path class="fil11" d="M5.63 9.26c0.04,0.02 0.07,0.06 0.06,0.11 -0.03,0.09 -0.1,0.24 -0.31,0.44 -0.34,0.32 -1.7,1.1 -2.03,1.25 -0.33,0.16 -0.41,0.18 -0.41,0.18 0,0 -0.13,0.02 0.41,-0.33 0.54,-0.35 1.03,-0.59 1.44,-0.95 0.41,-0.36 0.85,-0.7 0.85,-0.7z"/>
   <path class="fil1" d="M3.34 6.78c-0.06,-0.04 -0.02,-0.14 0.05,-0.12l0 0c0.12,0.04 0.54,0.34 0.56,0.42 0.03,0.08 -0.04,0.12 -0.16,0.02 -0.09,-0.07 -0.33,-0.23 -0.46,-0.31z"/>
   <path class="fil1" d="M2.47 6.25c-0.06,-0.01 -0.1,0.07 -0.05,0.11 0.02,0.02 0.04,0.03 0.07,0.05 0.13,0.08 0.46,0.1 0.62,0.11 0.04,0 0.05,-0.05 0.02,-0.07 -0.03,-0.01 -0.06,-0.03 -0.1,-0.05 -0.18,-0.06 -0.37,-0.14 -0.5,-0.15 -0.02,-0 -0.04,-0 -0.05,-0z"/>
   <path class="fil0" d="M5.9 10.07c-0.3,0.56 -0.67,1.6 -0.84,2.53 -0.11,0.62 -0.19,1.15 0.12,1.58 0.91,1.26 3.35,1.14 4.03,0.71 1.08,-0.69 1.57,-2.51 0.03,-3.73 -1.54,-1.22 -2.51,-2.63 -3.34,-1.09z"/>
   <path class="fil1" d="M10.06 13.2c0.04,0.01 0.06,-0.04 0.07,-0.09 0.01,-0.05 0.01,-0.09 -0.03,-0.09 -0.04,-0.01 -0.08,0.03 -0.09,0.08 -0.01,0.05 0.02,0.1 0.06,0.11z"/>
   <path class="fil1" d="M9.17 14.48c0.02,0.04 0.07,0.03 0.12,0 0.05,-0.02 0.08,-0.04 0.06,-0.08 -0.02,-0.04 -0.07,-0.05 -0.12,-0.03 -0.05,0.02 -0.07,0.07 -0.06,0.11z"/>
   <path class="fil1" d="M8.72 14.9c0.02,0.04 0.07,0.03 0.12,0.01 0.05,-0.02 0.08,-0.04 0.06,-0.08 -0.02,-0.04 -0.07,-0.05 -0.12,-0.03 -0.05,0.02 -0.07,0.07 -0.06,0.11z"/>
   <path class="fil1" d="M8.8 14.57c0.02,0.04 0.07,0.03 0.12,0 0.05,-0.02 0.08,-0.04 0.06,-0.08 -0.02,-0.04 -0.07,-0.05 -0.12,-0.03 -0.05,0.02 -0.07,0.07 -0.06,0.11z"/>
   <path class="fil1" d="M8.18 14.98c0.02,0.04 0.07,0.03 0.12,0 0.05,-0.02 0.08,-0.04 0.06,-0.08 -0.02,-0.04 -0.07,-0.05 -0.12,-0.03 -0.05,0.02 -0.07,0.07 -0.06,0.11z"/>
   <path class="fil1" d="M7.84 14.66c-0.01,0.04 0.04,0.06 0.09,0.07 0.05,0.01 0.09,0.01 0.1,-0.03 0.01,-0.04 -0.02,-0.08 -0.07,-0.1 -0.05,-0.01 -0.1,0.01 -0.11,0.05z"/>
   <path class="fil1" d="M7.25 14.57c-0.01,0.04 0.04,0.06 0.09,0.07 0.05,0.01 0.09,0.01 0.1,-0.03 0.01,-0.04 -0.02,-0.08 -0.07,-0.1 -0.05,-0.01 -0.1,0.01 -0.11,0.05z"/>
   <path class="fil1" d="M6.84 14.52c-0.02,0.04 0.02,0.07 0.07,0.1 0.05,0.03 0.08,0.03 0.1,-0 0.02,-0.04 -0,-0.09 -0.05,-0.11 -0.05,-0.03 -0.1,-0.02 -0.12,0.02z"/>
   <path class="fil1" d="M6.57 14.8c-0.03,0.05 0.03,0.09 0.09,0.13 0.06,0.03 0.11,0.05 0.14,-0 0.03,-0.05 -0,-0.12 -0.06,-0.15 -0.06,-0.03 -0.14,-0.02 -0.16,0.03z"/>
   <path class="fil1" d="M6.17 14.58c-0.03,0.05 0.03,0.09 0.09,0.13 0.06,0.03 0.11,0.05 0.14,-0 0.03,-0.05 -0,-0.12 -0.06,-0.15 -0.06,-0.03 -0.14,-0.02 -0.16,0.03z"/>
   <path class="fil1" d="M5.55 14.23c-0.03,0.05 0.03,0.09 0.09,0.13 0.06,0.03 0.11,0.05 0.14,-0 0.03,-0.05 -0,-0.12 -0.06,-0.15 -0.06,-0.03 -0.14,-0.02 -0.16,0.03z"/>
   <path class="fil1" d="M6.3 14.25c-0.02,0.04 0.02,0.07 0.07,0.1 0.05,0.03 0.08,0.03 0.1,-0 0.02,-0.04 -0,-0.09 -0.05,-0.11 -0.05,-0.03 -0.1,-0.02 -0.12,0.02z"/>
   <path class="fil1" d="M5.94 14.37c-0.02,0.04 0.02,0.07 0.07,0.1 0.05,0.03 0.08,0.03 0.1,-0 0.02,-0.04 -0,-0.09 -0.05,-0.11 -0.05,-0.03 -0.1,-0.02 -0.12,0.02z"/>
   <path class="fil1" d="M6.11 13.97c-0.02,0.04 0.02,0.07 0.07,0.1 0.05,0.03 0.08,0.03 0.1,-0 0.02,-0.04 -0,-0.09 -0.05,-0.11 -0.05,-0.03 -0.1,-0.02 -0.12,0.02z"/>
   <path class="fil1" d="M7.66 15.01c-0,0.04 0.05,0.05 0.1,0.05 0.05,0 0.09,-0.01 0.09,-0.05 0,-0.04 -0.04,-0.08 -0.09,-0.08 -0.05,-0 -0.1,0.03 -0.1,0.07z"/>
   <path class="fil1" d="M7.15 14.97c-0.01,0.04 0.04,0.06 0.09,0.07 0.05,0.01 0.09,0.01 0.1,-0.03 0.01,-0.04 -0.02,-0.08 -0.07,-0.1 -0.05,-0.01 -0.1,0.01 -0.11,0.05z"/>
   <path class="fil1" d="M6.02 13.93c0,0 -0.06,-0.14 -0.25,-0.12 -0.11,0.01 -0.18,0.1 -0.16,0.15 0.03,0.08 0.11,0.13 0.21,0.15 0.27,0.05 0.2,-0.18 0.2,-0.18z"/>
   <path class="fil1" d="M5.39 14.06c0,0 0,-0.1 -0.12,-0.14 -0.07,-0.03 -0.14,0.01 -0.14,0.05 -0.01,0.06 0.03,0.11 0.09,0.15 0.15,0.11 0.17,-0.06 0.17,-0.06z"/>
   <path class="fil1" d="M5.47 13.65c0,0 0.03,-0.17 -0.18,-0.28 -0.11,-0.06 -0.24,-0.01 -0.26,0.06 -0.02,0.1 0.03,0.2 0.13,0.28 0.25,0.22 0.31,-0.07 0.31,-0.07z"/>
   <path class="fil1" d="M9.91 12.74c-0.01,0.06 -0.04,0.11 0.02,0.12 0.06,0.01 0.13,-0.02 0.14,-0.09 0.01,-0.06 -0.02,-0.13 -0.09,-0.14 -0.06,-0.01 -0.06,0.04 -0.07,0.1z"/>
   <path class="fil1" d="M9.52 13.75c-0.04,0.05 -0.09,0.07 -0.05,0.12 0.05,0.04 0.12,0.04 0.17,-0 0.04,-0.05 0.04,-0.12 -0,-0.17 -0.05,-0.04 -0.07,0.01 -0.11,0.05z"/>
   <path class="fil1" d="M9.94 13.77c0.04,-0.05 0.09,-0.08 0.04,-0.12 -0.05,-0.04 -0.12,-0.03 -0.16,0.02 -0.04,0.05 -0.03,0.12 0.02,0.16 0.05,0.04 0.07,-0.01 0.11,-0.06z"/>
   <path class="fil1" d="M9.7 14.26c0.04,-0.05 0.09,-0.08 0.04,-0.12 -0.05,-0.04 -0.12,-0.03 -0.16,0.02 -0.04,0.05 -0.03,0.12 0.02,0.16 0.05,0.04 0.07,-0.01 0.11,-0.06z"/>
   <path class="fil12" d="M9 14.04c0.01,0.09 -0.03,0.17 -0.11,0.22 -0.11,0.06 -0.28,0.13 -0.41,0.1 -0.23,-0.05 -0.21,-0.96 -0.37,-1.42 -0.06,-0.18 0.05,-0.53 0.1,-0.7 0.01,-0.03 0.06,-0.04 0.07,-0.01 0.15,0.3 0.6,1.27 0.66,1.54 0.03,0.12 0.04,0.2 0.05,0.27z"/>
   <path class="fil13" d="M9.58 12.8c0,0 0.21,-0.22 0.11,-0.48 -0.1,-0.25 -0.56,-0.92 -0.78,-1.12 -0.22,-0.21 -0.49,-0.33 -0.57,-0.33 -0.08,-0.01 -0.11,0.06 0.03,0.3 0.14,0.23 0.57,0.72 0.72,1.05 0.16,0.33 0.18,0.44 0.31,0.55 0.13,0.1 0.17,0.05 0.17,0.05z"/>
   <path class="fil14" d="M9.06 13.67c0.03,0.07 0.12,0.09 0.17,0.04 0.11,-0.1 0.25,-0.26 0.24,-0.39 -0.01,-0.22 -0.98,-1.85 -1.17,-2.03 -0.19,-0.18 -0.1,0.46 -0.1,0.46l0.85 1.92z"/>
   <path class="fil15" d="M7.46 9.72c-0.04,-0.03 -0.1,0.01 -0.07,0.06 0.07,0.12 0.16,0.28 0.27,0.4 0.21,0.23 0.86,0.68 0.96,0.7 0.1,0.02 0.08,-0.03 -0.11,-0.24 -0.19,-0.21 -0.84,-0.74 -0.9,-0.79 -0.02,-0.02 -0.09,-0.08 -0.16,-0.13z"/>
   <path class="fil16" d="M7.74 14.38c-0.05,-0.01 -0.1,-0.02 -0.14,-0.04 -0.14,-0.06 -0.25,-0.22 -0.2,-0.36 0.19,-0.53 0.19,-1.05 0.29,-1.04 0.14,0.02 0.27,0.07 0.35,0.28 0.07,0.21 0.12,0.57 0.15,0.83l0.01 0.08c0.01,0.11 -0.06,0.22 -0.17,0.24 -0.08,0.02 -0.18,0.03 -0.28,0.01z"/>
   <path class="fil17" d="M7.77 12.76c0.1,0.03 0.21,-0.02 0.24,-0.12 0.07,-0.19 0.18,-0.53 0.14,-0.74 -0.02,-0.1 -0.04,-0.18 -0.06,-0.26 -0.05,-0.14 -0.04,-0.3 0.02,-0.44 0.02,-0.03 0.03,-0.07 0.03,-0.12 0.01,-0.17 -0.66,-1.12 -0.85,-1.3 -0.19,-0.18 -0.31,-0.36 -0.35,-0.31 -0.04,0.05 0.02,1.33 0.15,1.85 0.13,0.52 0.3,1.01 0.44,1.25 0.06,0.1 0.16,0.16 0.24,0.19z"/>
   <path class="fil18" d="M7.03 14.19c0.11,-0.01 0.2,-0.08 0.23,-0.19 0.07,-0.26 0.21,-0.75 0.22,-0.93 0.02,-0.25 -0.24,-0.9 -0.35,-0.99 -0.11,-0.09 -0.12,0.23 -0.13,0.43 -0.01,0.2 -0.02,0.4 -0.16,0.65 -0.14,0.25 -0.33,0.42 -0.31,0.59 0.02,0.16 0.09,0.34 0.21,0.41 0.06,0.03 0.18,0.04 0.28,0.03z"/>
   <path class="fil19" d="M6.2 13.75c0.08,0 0.16,-0.04 0.21,-0.11 0.12,-0.17 0.34,-0.53 0.27,-0.67 -0.09,-0.19 -0.03,-0.38 0.04,-0.47 0.07,-0.09 0.25,-0.31 0.29,-0.52 0.04,-0.2 -0.12,-2.71 -0.36,-2.49 -0.1,0.1 -0.21,0.76 -0.27,1.1 -0.06,0.34 -0.08,1.04 -0.2,1.42 -0.12,0.38 -0.5,1.42 -0.5,1.42 0,0 -0.02,0.19 0.14,0.23 0.15,0.04 0.23,0.08 0.37,0.08z"/>
   <path class="fil20" d="M5.6 13.29c-0.03,0.09 -0.14,0.14 -0.23,0.09 -0.04,-0.02 -0.07,-0.05 -0.11,-0.09 -0.14,-0.17 0.45,-1.73 0.68,-2.29 0.15,-0.36 0.32,-0.78 0.43,-1.03 0.01,-0.03 0.06,-0.02 0.06,0.02 -0.04,0.31 -0.12,0.82 -0.18,1.08 -0.09,0.38 -0.12,0.83 -0.32,1.35 -0.14,0.37 -0.27,0.71 -0.33,0.88z"/>
   <path class="fil11" d="M6.38 9.85c-0.03,-0.04 -0.08,-0.05 -0.12,-0.03 -0.08,0.04 -0.21,0.15 -0.35,0.4 -0.23,0.41 -0.68,1.91 -0.75,2.27 -0.07,0.36 -0.08,0.44 -0.08,0.44 0,0 0.02,0.13 0.23,-0.48 0.21,-0.61 0.33,-1.14 0.59,-1.62 0.26,-0.48 0.48,-0.99 0.48,-0.99z"/>
   <path class="fil1" d="M9.32 11.5c0.06,0.05 0.14,-0.01 0.11,-0.08l-0 -0c-0.06,-0.11 -0.45,-0.45 -0.54,-0.45 -0.08,-0.01 -0.11,0.06 0.02,0.16 0.09,0.07 0.3,0.27 0.41,0.37z"/>
   <path class="fil1" d="M10.03 12.23c0.02,0.06 -0.05,0.11 -0.1,0.08 -0.02,-0.01 -0.04,-0.03 -0.07,-0.06 -0.11,-0.11 -0.2,-0.42 -0.25,-0.58 -0.01,-0.04 0.04,-0.06 0.06,-0.04 0.02,0.02 0.04,0.05 0.07,0.09 0.1,0.16 0.22,0.33 0.26,0.45 0.01,0.02 0.01,0.04 0.02,0.05z"/>
   <path class="fil0" d="M6.68 8.15c-0.87,1.1 -4.53,-2.33 -4.68,-2.93 -0.07,-0.28 0.36,-0.93 0.66,-1.74 0.28,-0.76 0.43,-1.67 0.51,-2.16 0.31,-1.85 1.13,-1.7 2.28,0.05 1.06,1.6 1.35,6.61 1.22,6.78z"/>
   <path class="fil21" d="M6.14 4.89c-0.18,-0.37 -0.43,-0.55 -0.61,-0.63 -0.13,-0.06 -0.29,0.01 -0.32,0.15 -0.02,0.09 -0.03,0.22 -0.01,0.39 0.04,0.51 0.29,1.33 0.41,1.67 0.1,0.26 0.49,1.23 0.66,1.63l0 0c0.05,0.13 0.25,0.08 0.24,-0.06 -0.02,-0.62 -0.11,-2.62 -0.37,-3.15z"/>
   <path class="fil22" d="M3.79 3.42c-0.05,-0.12 -0.01,-0.27 0.1,-0.34 0.06,-0.04 0.2,-0.07 0.32,-0.03 0.24,0.07 0.52,0.29 0.7,0.58 0.27,0.43 0.21,0.94 0.2,1.12 -0.01,0.09 -0.81,-0.71 -1.12,-1.04 -0.08,-0.09 -0.15,-0.19 -0.19,-0.3z"/>
   <path class="fil23" d="M3.28 4.36c-0.05,-0.14 0.23,-0.44 0.36,-0.46 0.13,-0.02 1.01,0.51 1.38,1.12 0.1,0.16 0.19,0.58 0.23,0.76 0.01,0.03 -0.03,0.06 -0.06,0.04 -0.35,-0.21 -1.77,-1.09 -1.91,-1.47z"/>
   <path class="fil24" d="M2.82 5.41c-0.32,-0.28 0.18,-0.72 0.32,-0.7 0.47,0.06 1.91,1.26 2.21,1.67 0.3,0.41 0.92,1.59 0.76,1.64 -0.28,0.09 -1.49,-1.1 -1.97,-1.48 -0.3,-0.24 -1.01,-0.86 -1.31,-1.13z"/>
   <path class="fil25" d="M3.97 1.57c0,0 0.05,-0.14 0.17,-0.1 0.12,0.04 0.59,0.46 0.7,0.58 0.11,0.12 0.07,0.29 -0.02,0.28 -0.08,-0.01 -0.55,-0.43 -0.67,-0.5 -0.18,-0.11 -0.18,-0.26 -0.18,-0.26z"/>
   <path class="fil26" d="M5.34 2.73c-0.07,0.09 -0.19,0.07 -0.29,-0.01 -0.1,-0.08 -0.14,-0.2 -0.07,-0.28 0.07,-0.09 0.21,-0.09 0.31,-0.01 0.1,0.08 0.13,0.21 0.06,0.3z"/>
   <path class="fil27" d="M3.86 2.23c-0.06,-0.09 0.01,-0.21 0.12,-0.19 0.09,0.01 0.2,0.06 0.33,0.15 0.36,0.26 0.39,0.34 0.36,0.41 -0.03,0.07 -0.06,0.37 -0.25,0.28 -0.13,-0.07 -0.41,-0.43 -0.56,-0.64z"/>
   <path class="fil28" d="M4.45 2.57c-0.07,0.09 -0.16,0.11 -0.26,0.03 -0.1,-0.08 -0.13,-0.21 -0.06,-0.3 0.07,-0.09 0.21,-0.09 0.31,-0.01 0.1,0.08 0.08,0.19 0.02,0.28z"/>
   <path class="fil29" d="M5.21 1.95c0,-0.12 -0.13,-0.43 -0.34,-0.66 -0.15,-0.16 -0.41,-0.24 -0.54,-0.26l-0 -0c-0.08,-0.02 -0.13,0.07 -0.09,0.14 0.07,0.1 0.22,0.27 0.58,0.56 0.13,0.11 0.39,0.34 0.39,0.22z"/>
   <path class="fil30" d="M5.75 3.92c-0.08,0 -0.1,-0.09 -0.1,-0.19 -0,-0.1 0.01,-0.16 0.09,-0.16 0.08,-0 0.14,0.08 0.14,0.17 0,0.1 -0.06,0.18 -0.14,0.18z"/>
   <path class="fil1" d="M5.83 2.97c-0.07,0 -0.08,-0.08 -0.09,-0.17 -0,-0.08 0.01,-0.14 0.08,-0.14 0.07,-0 0.12,0.07 0.13,0.15 0,0.08 -0.05,0.15 -0.12,0.16z"/>
   <path class="fil26" d="M3.58 2.86c-0.08,0 -0.1,-0.09 -0.1,-0.19 -0,-0.1 0.01,-0.16 0.09,-0.16 0.08,-0 0.14,0.07 0.14,0.17 0,0.1 -0.06,0.18 -0.14,0.18z"/>
   <path class="fil1" d="M3.17 3.79c-0.07,0 -0.08,-0.08 -0.08,-0.16 -0,-0.08 0.01,-0.14 0.08,-0.14 0.07,-0 0.12,0.06 0.12,0.15 0,0.08 -0.05,0.15 -0.12,0.15z"/>
   <path class="fil1" d="M3.52 3.43c-0.06,0 -0.07,-0.07 -0.07,-0.14 -0,-0.07 0.01,-0.11 0.06,-0.12 0.06,-0 0.1,0.05 0.1,0.12 0,0.07 -0.04,0.13 -0.1,0.13z"/>
   <path class="fil1" d="M6.12 4.03c-0.06,0 -0.07,-0.07 -0.07,-0.14 -0,-0.07 0.01,-0.12 0.06,-0.12 0.06,-0 0.1,0.05 0.1,0.12 0,0.07 -0.04,0.13 -0.1,0.13z"/>
   <path class="fil1" d="M6.4 5.34c-0.05,0 -0.06,-0.07 -0.06,-0.14 -0,-0.07 0.01,-0.12 0.05,-0.12 0.05,-0 0.09,0.05 0.09,0.12 0,0.07 -0.04,0.13 -0.08,0.13z"/>
   <path class="fil1" d="M3.13 2.63c-0.05,0 -0.06,-0.06 -0.06,-0.12 -0,-0.06 0.01,-0.1 0.06,-0.1 0.05,-0 0.09,0.05 0.09,0.11 0,0.06 -0.04,0.11 -0.09,0.11z"/>
   <path class="fil1" d="M3.27 1.78c-0.05,0 -0.06,-0.06 -0.06,-0.12 -0,-0.06 0.01,-0.1 0.06,-0.1 0.05,-0 0.09,0.05 0.09,0.11 0,0.06 -0.04,0.11 -0.09,0.11z"/>
   <path class="fil1" d="M4.95 0.86c-0.03,0.04 -0.08,0.01 -0.13,-0.03 -0.05,-0.04 -0.07,-0.07 -0.04,-0.11 0.03,-0.04 0.09,-0.04 0.14,-0 0.05,0.04 0.06,0.1 0.03,0.14z"/>
   <path class="fil1" d="M3.09 3.18c-0.06,0 -0.07,-0.07 -0.07,-0.13 -0,-0.07 0.01,-0.11 0.06,-0.11 0.06,-0 0.1,0.05 0.1,0.12 0,0.07 -0.04,0.13 -0.1,0.13z"/>
   <path class="fil31" d="M5.13 3.38c0,0 0.03,-0.07 0.16,0.06 0.13,0.13 0.15,0.3 0.14,0.35 -0.01,0.05 -0.05,0.11 -0.15,0 -0.06,-0.06 -0.11,-0.16 -0.15,-0.23 -0.03,-0.06 -0.03,-0.12 -0,-0.18z"/>
   <path class="fil1" d="M4.37 0.64c0,0 0.1,-0.13 0.19,-0.12 0.08,0.01 0.14,0.08 0.11,0.12 -0.03,0.04 -0.07,0.1 -0.15,0.12 -0.21,0.04 -0.15,-0.12 -0.15,-0.12z"/>
   <path class="fil1" d="M5.44 2.08c0,0 0.16,0.06 0.13,0.25 -0.02,0.11 -0.13,0.17 -0.17,0.13 -0.04,-0.04 -0.12,-0.1 -0.13,-0.21 -0.02,-0.28 0.17,-0.17 0.17,-0.17z"/>
   <path class="fil1" d="M3.01 4.17c-0.04,0.05 -0.06,0.1 -0.11,0.06 -0.05,-0.04 -0.06,-0.11 -0.02,-0.16 0.04,-0.05 0.11,-0.06 0.16,-0.02 0.05,0.04 0,0.07 -0.04,0.12z"/>
   <path class="fil1" d="M2.74 3.5c-0.01,-0.06 -0.03,-0.11 0.03,-0.12 0.06,-0.01 0.12,0.04 0.13,0.1 0.01,0.06 -0.04,0.12 -0.1,0.13 -0.06,0.01 -0.05,-0.05 -0.06,-0.11z"/>
   <path class="fil1" d="M2.52 4.45c-0.04,0.05 -0.08,0.09 -0.13,0.05 -0.05,-0.04 -0.06,-0.11 -0.02,-0.16 0.04,-0.05 0.11,-0.06 0.16,-0.02 0.05,0.04 0.02,0.08 -0.02,0.14z"/>
   <path class="fil1" d="M2.75 3.97c-0.04,0.05 -0.08,0.09 -0.13,0.05 -0.05,-0.04 -0.06,-0.11 -0.02,-0.16 0.04,-0.05 0.11,-0.06 0.16,-0.02 0.05,0.04 0.02,0.08 -0.02,0.14z"/>
   <path class="fil1" d="M3.7 0.58c-0.04,0.05 -0.09,0.08 -0.14,0.04 -0.05,-0.04 -0.05,-0.11 -0.01,-0.16 0.04,-0.05 0.11,-0.06 0.15,-0.03 0.05,0.04 0.03,0.09 -0.01,0.14z"/>
   <path class="fil1" d="M3.3 1.05c0,-0.06 0.03,-0.12 0.09,-0.11 0.06,0 0.1,0.06 0.1,0.12 -0,0.06 -0.05,0.11 -0.11,0.11 -0.06,-0 -0.08,-0.06 -0.07,-0.12z"/>
   <path class="fil1" d="M3.39 2.09c-0.01,0.06 -0.04,0.11 -0.1,0.1 -0.06,-0.01 -0.1,-0.07 -0.09,-0.13 0.01,-0.06 0.06,-0.11 0.12,-0.1 0.06,0.01 0.07,0.06 0.07,0.13z"/>
   <path class="fil1" d="M4.16 0.79c-0.04,0.05 -0.09,0.02 -0.15,-0.03 -0.06,-0.05 -0.11,-0.09 -0.07,-0.14 0.04,-0.05 0.12,-0.05 0.18,-0 0.06,0.05 0.08,0.13 0.04,0.18z"/>
   <path class="fil1" d="M3.81 1.23c-0.04,0.05 -0.11,0.06 -0.16,0.02 -0.05,-0.04 -0.02,-0.08 0.02,-0.14 0.04,-0.05 0.08,-0.09 0.13,-0.05 0.05,0.04 0.06,0.11 0.02,0.16z"/>
   <path class="fil1" d="M3.66 1.8c-0.02,0.06 -0.09,0.09 -0.15,0.06 -0.06,-0.02 -0.05,-0.07 -0.02,-0.13 0.02,-0.06 0.05,-0.11 0.11,-0.08 0.06,0.02 0.09,0.09 0.06,0.15z"/>
   <path class="fil32" d="M5 7.6c-0.04,-0.05 0.02,-0.11 0.07,-0.08 0.19,0.11 0.66,0.4 0.86,0.57 0.24,0.22 0.09,0.22 0.09,0.22 0,0 -0.7,-0.4 -0.92,-0.61 -0.05,-0.04 -0.08,-0.08 -0.1,-0.11z"/>
   <path class="fil33" d="M2.31 5.02c-0.04,0.05 -0.06,0.1 -0.11,0.06 -0.05,-0.04 -0.06,-0.11 -0.02,-0.16 0.04,-0.05 0.11,-0.06 0.16,-0.02 0.05,0.04 0,0.07 -0.04,0.12z"/>
   <path class="fil0" d="M7.17 8.54c-0.87,1.1 3.31,3.87 3.93,3.88 0.29,0.01 0.82,-0.56 1.54,-1.04 0.67,-0.45 1.53,-0.81 1.98,-1 1.73,-0.73 1.39,-1.49 -0.57,-2.21 -1.8,-0.66 -6.75,0.2 -6.88,0.37z"/>
   <path class="fil34" d="M10.47 8.32c0.4,0.09 0.64,0.3 0.76,0.45 0.09,0.11 0.05,0.28 -0.08,0.35 -0.08,0.04 -0.2,0.08 -0.38,0.1 -0.51,0.08 -1.36,0.03 -1.72,-0.02 -0.28,-0.03 -1.31,-0.2 -1.73,-0.26l-0 -0c-0.14,-0.02 -0.13,-0.22 0,-0.25 0.61,-0.12 2.57,-0.5 3.15,-0.37z"/>
   <path class="fil35" d="M12.44 10.26c0.13,0.02 0.26,-0.05 0.31,-0.18 0.03,-0.07 0.02,-0.21 -0.04,-0.32 -0.13,-0.22 -0.4,-0.44 -0.73,-0.55 -0.49,-0.16 -0.96,0.01 -1.14,0.07 -0.09,0.03 0.88,0.62 1.27,0.85 0.1,0.06 0.22,0.1 0.33,0.12z"/>
   <path class="fil36" d="M11.65 10.98c0.14,0.02 0.38,-0.33 0.36,-0.46 -0.02,-0.13 -0.73,-0.86 -1.41,-1.08 -0.17,-0.06 -0.61,-0.05 -0.8,-0.05 -0.03,0 -0.05,0.04 -0.03,0.07 0.29,0.29 1.47,1.47 1.87,1.52z"/>
   <path class="fil37" d="M10.73 11.66c0.34,0.24 0.66,-0.34 0.61,-0.47 -0.17,-0.44 -1.66,-1.57 -2.14,-1.76 -0.47,-0.19 -1.76,-0.53 -1.77,-0.36 -0.02,0.29 1.41,1.2 1.9,1.57 0.3,0.23 1.07,0.79 1.4,1.02z"/>
   <path class="fil38" d="M14.2 9.66c0,0 0.12,-0.08 0.06,-0.19 -0.06,-0.11 -0.59,-0.46 -0.73,-0.55 -0.14,-0.08 -0.3,0 -0.27,0.08 0.03,0.08 0.54,0.44 0.65,0.54 0.15,0.15 0.3,0.12 0.3,0.12z"/>
   <path class="fil26" d="M12.76 8.59c-0.07,0.09 -0.03,0.2 0.07,0.28 0.1,0.08 0.22,0.09 0.29,0.01 0.07,-0.09 0.04,-0.22 -0.06,-0.3 -0.1,-0.08 -0.24,-0.08 -0.31,0.01z"/>
   <path class="fil39" d="M13.58 9.92c0.1,0.04 0.2,-0.06 0.16,-0.16 -0.03,-0.08 -0.1,-0.18 -0.22,-0.29 -0.33,-0.29 -0.42,-0.3 -0.48,-0.26 -0.06,0.04 -0.35,0.14 -0.21,0.31 0.09,0.12 0.51,0.3 0.76,0.4z"/>
   <path class="fil40" d="M13.11 9.42c-0.07,0.09 -0.07,0.18 0.03,0.26 0.1,0.08 0.24,0.08 0.31,-0.01 0.07,-0.09 0.04,-0.22 -0.06,-0.3 -0.1,-0.08 -0.21,-0.04 -0.28,0.05z"/>
   <path class="fil41" d="M13.54 8.54c0.11,-0.03 0.45,0.03 0.72,0.18 0.19,0.11 0.32,0.34 0.38,0.46l0 0c0.03,0.07 -0.04,0.15 -0.11,0.12 -0.11,-0.04 -0.31,-0.15 -0.68,-0.43 -0.13,-0.1 -0.42,-0.3 -0.3,-0.33z"/>
   <path class="fil42" d="M11.5 8.47c0.02,0.08 0.11,0.07 0.21,0.05 0.09,-0.02 0.15,-0.05 0.14,-0.12 -0.02,-0.08 -0.11,-0.12 -0.2,-0.1 -0.09,0.02 -0.16,0.1 -0.14,0.17z"/>
   <path class="fil1" d="M12.41 8.18c0.01,0.07 0.1,0.06 0.18,0.04 0.08,-0.02 0.13,-0.04 0.12,-0.11 -0.01,-0.07 -0.09,-0.11 -0.18,-0.09 -0.08,0.02 -0.14,0.09 -0.12,0.15z"/>
   <path class="fil26" d="M13.04 10.34c0.02,0.08 0.11,0.07 0.21,0.05 0.09,-0.02 0.15,-0.05 0.14,-0.12 -0.02,-0.08 -0.11,-0.12 -0.2,-0.1 -0.09,0.02 -0.16,0.1 -0.14,0.17z"/>
   <path class="fil1" d="M12.22 10.95c0.01,0.07 0.1,0.06 0.18,0.04 0.08,-0.02 0.13,-0.04 0.12,-0.11 -0.01,-0.07 -0.09,-0.1 -0.17,-0.09 -0.08,0.02 -0.14,0.08 -0.12,0.15z"/>
   <path class="fil1" d="M12.49 10.53c0.01,0.05 0.08,0.05 0.15,0.04 0.07,-0.01 0.11,-0.03 0.1,-0.09 -0.01,-0.05 -0.08,-0.09 -0.14,-0.07 -0.07,0.01 -0.11,0.07 -0.1,0.13z"/>
   <path class="fil1" d="M11.31 8.14c0.01,0.05 0.08,0.05 0.15,0.04 0.07,-0.01 0.11,-0.03 0.1,-0.09 -0.01,-0.05 -0.08,-0.09 -0.14,-0.07 -0.07,0.01 -0.11,0.07 -0.1,0.13z"/>
   <path class="fil1" d="M9.97 8.16c0.01,0.05 0.08,0.04 0.15,0.03 0.07,-0.01 0.11,-0.03 0.1,-0.08 -0.01,-0.05 -0.07,-0.07 -0.14,-0.06 -0.07,0.01 -0.12,0.06 -0.11,0.11z"/>
   <path class="fil1" d="M13.36 10.72c0.01,0.05 0.07,0.04 0.13,0.03 0.06,-0.01 0.1,-0.03 0.09,-0.08 -0.01,-0.05 -0.07,-0.08 -0.13,-0.06 -0.06,0.01 -0.1,0.06 -0.09,0.11z"/>
   <path class="fil1" d="M14.16 10.39c0.01,0.05 0.07,0.04 0.13,0.03 0.06,-0.01 0.1,-0.03 0.09,-0.08 -0.01,-0.05 -0.07,-0.08 -0.13,-0.06 -0.06,0.01 -0.1,0.06 -0.09,0.11z"/>
   <path class="fil1" d="M14.66 8.54c-0.03,0.04 0.01,0.08 0.05,0.12 0.05,0.04 0.08,0.06 0.11,0.02 0.03,-0.04 0.02,-0.1 -0.03,-0.14 -0.05,-0.04 -0.11,-0.04 -0.14,-0z"/>
   <path class="fil1" d="M12.84 10.89c0.01,0.05 0.08,0.05 0.15,0.04 0.07,-0.01 0.11,-0.03 0.1,-0.09 -0.01,-0.05 -0.08,-0.09 -0.14,-0.07 -0.07,0.01 -0.11,0.07 -0.1,0.12z"/>
   <path class="fil31" d="M12.18 8.95c0,0 0.06,-0.04 -0.1,-0.14 -0.16,-0.1 -0.33,-0.08 -0.37,-0.06 -0.05,0.02 -0.09,0.08 0.03,0.15 0.07,0.04 0.18,0.07 0.26,0.09 0.06,0.01 0.13,0 0.18,-0.04z"/>
   <path class="fil1" d="M15.01 9.05c0,0 0.1,-0.13 0.08,-0.21 -0.03,-0.08 -0.11,-0.12 -0.14,-0.08 -0.03,0.04 -0.08,0.09 -0.08,0.18 0.01,0.22 0.15,0.12 0.15,0.12z"/>
   <path class="fil1" d="M13.37 8.35c0,0 -0.1,-0.14 -0.28,-0.07 -0.1,0.04 -0.14,0.16 -0.09,0.19 0.05,0.03 0.13,0.09 0.24,0.08 0.27,-0.04 0.13,-0.2 0.13,-0.2z"/>
   <path class="fil1" d="M11.89 11.2c-0.04,0.05 -0.09,0.08 -0.04,0.12 0.05,0.04 0.12,0.03 0.16,-0.02 0.04,-0.05 0.03,-0.12 -0.02,-0.16 -0.05,-0.04 -0.07,0.01 -0.11,0.06z"/>
   <path class="fil1" d="M12.61 11.3c0.06,-0.01 0.12,0 0.11,-0.06 -0.01,-0.06 -0.07,-0.11 -0.13,-0.1 -0.06,0.01 -0.11,0.07 -0.1,0.13 0.01,0.06 0.06,0.04 0.12,0.03z"/>
   <path class="fil1" d="M11.73 11.73c-0.04,0.05 -0.07,0.1 -0.02,0.14 0.05,0.04 0.12,0.03 0.16,-0.02 0.04,-0.05 0.03,-0.12 -0.02,-0.16 -0.05,-0.04 -0.09,-0 -0.13,0.05z"/>
   <path class="fil1" d="M12.15 11.4c-0.04,0.05 -0.07,0.1 -0.02,0.14 0.05,0.04 0.12,0.03 0.16,-0.02 0.04,-0.05 0.03,-0.12 -0.02,-0.16 -0.05,-0.04 -0.09,-0 -0.13,0.05z"/>
   <path class="fil1" d="M15.22 9.69c-0.04,0.05 -0.05,0.11 -0.01,0.14 0.05,0.04 0.11,0.02 0.15,-0.03 0.04,-0.05 0.04,-0.12 -0.01,-0.16 -0.05,-0.04 -0.1,-0.01 -0.14,0.04z"/>
   <path class="fil1" d="M14.87 10.19c0.06,-0.02 0.1,-0.06 0.09,-0.11 -0.02,-0.06 -0.08,-0.09 -0.14,-0.07 -0.06,0.02 -0.1,0.08 -0.08,0.13 0.02,0.06 0.07,0.06 0.14,0.04z"/>
   <path class="fil1" d="M13.83 10.35c-0.06,0.02 -0.1,0.06 -0.08,0.12 0.02,0.05 0.09,0.08 0.15,0.06 0.06,-0.02 0.09,-0.09 0.07,-0.14 -0.02,-0.05 -0.08,-0.06 -0.14,-0.03z"/>
   <path class="fil1" d="M14.91 9.3c-0.04,0.05 0.01,0.09 0.07,0.14 0.06,0.05 0.11,0.08 0.15,0.03 0.04,-0.05 0.02,-0.13 -0.04,-0.18 -0.06,-0.05 -0.14,-0.05 -0.18,0z"/>
   <path class="fil1" d="M14.56 9.74c-0.04,0.05 -0.03,0.12 0.02,0.16 0.05,0.04 0.09,0 0.13,-0.05 0.04,-0.05 0.07,-0.1 0.02,-0.14 -0.05,-0.04 -0.12,-0.03 -0.16,0.02z"/>
   <path class="fil1" d="M14.05 10.01c-0.05,0.04 -0.07,0.11 -0.03,0.16 0.04,0.05 0.08,0.03 0.14,-0.01 0.05,-0.04 0.09,-0.07 0.05,-0.12 -0.04,-0.05 -0.11,-0.07 -0.16,-0.03z"/>
   <path class="fil43" d="M8.1 10.05c0.06,0.02 0.1,-0.05 0.06,-0.09 -0.15,-0.16 -0.54,-0.55 -0.76,-0.7 -0.27,-0.18 -0.24,-0.04 -0.24,-0.04 0,0 0.55,0.58 0.8,0.75 0.05,0.04 0.1,0.06 0.13,0.07z"/>
   <path class="fil44" d="M11.23 12.07c-0.04,0.05 -0.09,0.08 -0.04,0.12 0.05,0.04 0.12,0.03 0.16,-0.02 0.04,-0.05 0.03,-0.12 -0.02,-0.16 -0.05,-0.04 -0.07,0.01 -0.11,0.06z"/>
   <path class="fil0" d="M6.95 9.14c0.18,-0.23 0.34,-0.45 0.26,-0.67 0.12,0 0.18,0 0.22,-0.11 0.07,-0.24 0.11,-0.36 -0.08,-0.51 -0.19,-0.15 -0.24,-0.07 -0.46,0.02 -0.12,0.05 -0.14,0.15 -0.11,0.27 -0.23,-0.03 -0.39,0.16 -0.57,0.39 -0.22,0.28 -0.42,0.45 -0.25,0.68 -0.25,0.09 -0.6,0.74 -1,1.13 -0.92,0.9 -0.95,1.43 -0.78,1.56 0.16,0.13 0.73,-0.14 1.33,-1.12 0.35,-0.57 0.84,-0.97 0.87,-1.23 0.26,0.11 0.35,-0.12 0.57,-0.4z"/>
   <path class="fil0" d="M7 5.35l0 0c0.01,0.01 0.09,0.13 0.09,0.3 0,0.02 -0,0.04 -0,0.06 -0.01,0.05 -0.01,0.15 -0.01,0.27 -0,0.13 -0,0.29 -0,0.46 0,0.62 0.01,1.38 0.01,1.38l0.05 -0c0,-0 -0,-0.05 -0,-0.13 -0,-0.24 -0.01,-0.79 -0.01,-1.25 0,-0.17 0,-0.33 0,-0.46 0,-0.13 0.01,-0.22 0.01,-0.27 0,-0.02 0,-0.04 0,-0.06 -0,-0.19 -0.1,-0.32 -0.1,-0.33l-0.04 0.03 0 0z"/>
   <path class="fil0" d="M7.13 5.5c-0.05,0.01 -0.1,-0.03 -0.13,-0.11 -0.03,-0.08 -0.02,-0.15 0.02,-0.17 0.04,-0.02 0.1,0.03 0.13,0.11 0.03,0.09 0.02,0.17 -0.02,0.17z"/>
   <path class="fil0" d="M9.79 7.64c-0,-0 -0.11,-0.05 -0.25,-0.05 -0.05,0 -0.1,0.01 -0.15,0.02 -0.06,0.02 -0.22,0.05 -0.42,0.09 -0.3,0.06 -0.7,0.13 -1.02,0.19 -0.16,0.03 -0.3,0.05 -0.41,0.07 -0.1,0.02 -0.16,0.03 -0.16,0.03l0.01 0.05c0,0 0.44,-0.08 0.91,-0.16 0.24,-0.04 0.48,-0.09 0.68,-0.13 0.2,-0.04 0.36,-0.07 0.42,-0.09 0.05,-0.01 0.09,-0.02 0.14,-0.02 0.06,0 0.12,0.01 0.16,0.02 0.02,0.01 0.04,0.01 0.05,0.02 0.01,0 0.01,0 0.01,0l0 0 0 0 0.02 -0.04z"/>
   <path class="fil0" d="M9.6 7.58c-0.01,0.04 0.05,0.09 0.13,0.11 0.08,0.02 0.16,-0.01 0.16,-0.05 0.01,-0.04 -0.05,-0.09 -0.13,-0.11 -0.08,-0.02 -0.16,0.01 -0.17,0.05z"/>
   <path class="fil1" d="M7 8.13c-0.03,0.04 -0.09,0.05 -0.12,0.02 -0.04,-0.03 -0.04,-0.08 -0.01,-0.12 0.03,-0.04 0.09,-0.05 0.12,-0.02 0.04,0.03 0.04,0.08 0.01,0.12z"/>
   <path class="fil1" d="M7.27 8.37c-0.03,0.04 -0.09,0.05 -0.12,0.02 -0.04,-0.03 -0.04,-0.08 -0.01,-0.12 0.03,-0.04 0.09,-0.05 0.12,-0.02 0.04,0.03 0.04,0.08 0.01,0.12z"/>
  </g>
 </g>
</svg>
