<?xml version="1.0" encoding="utf-8" ?><svg xmlns="http://www.w3.org/2000/svg" xmlns:xlink="http://www.w3.org/1999/xlink" width="500" height="518" viewBox="0 0 500 518"><defs><linearGradient id="gradient_0" gradientUnits="userSpaceOnUse" x1="359.50668" y1="275.02783" x2="142.26654" y2="258.82025"><stop offset="0" stop-color="#FF9C00"/><stop offset="1" stop-color="#FFB600"/></linearGradient></defs><path fill="url(#gradient_0)" d="M182.288 146.432C189.695 149.27 190.378 154.71 194.477 160.389C195.901 162.361 207.898 161.968 211.001 162.153C234.36 163.556 258.748 160.691 281.998 161.952C308.032 163.363 349.662 165.178 354.955 197.789C358.319 218.514 355.62 240.651 355.695 261.705C355.77 282.626 356.622 303.389 356.495 324.289C356.292 353.89 343.98 369.443 323.266 388.335L321.963 383.609C320.199 375.021 320.628 360.611 321.024 351.994L322.259 328.483L323.624 300.737C324.43 284.21 325.093 267.041 324.15 250.415C323.486 238.719 321.476 217.55 312.353 209.276C307.963 205.82 300.046 202.999 294.641 202.361C260.865 198.375 224.613 199.403 190.802 200.111C181.395 200.32 171.987 200.477 162.578 200.582C157.415 200.64 150.74 200.522 145.684 200.886C149.609 189.484 155.02 180.854 162.781 171.695C167.157 166.531 171.896 161.568 176.078 156.255C178.431 153.264 180.393 149.748 182.288 146.432Z"/><path fill="#FFAC00" d="M202.688 227.837C203.017 228.277 204.464 270.088 204.462 275.08C204.447 315.367 207.172 360.544 169.946 386.006C169.502 386.358 169.652 386.245 169.084 386.43L168.772 386.077C168.415 384.016 168.678 377.426 168.686 374.826L168.797 348.642L169.09 298.364C169.147 287.971 168.668 276.722 170.273 266.48C171.454 258.943 178.449 252.117 183.319 246.586C189.281 239.813 195.106 232.914 202.688 227.837Z"/><path fill="#FFAC00" d="M78.8253 261.318C78.918 261.219 79.0155 261.124 79.1036 261.02C80.2407 259.683 82.8066 244.871 83.5732 241.955C85.1379 236.106 87.0198 230.347 89.2106 224.702C107.109 177.249 155.641 124.826 207.985 115.208C211.737 114.519 216.103 114.562 219.946 114.235C217.468 115.858 213.762 116.655 211.045 117.961C170.017 137.764 136.59 185.225 126.182 228.949C113.839 280.801 122.418 342.571 150.153 388.157C166.865 415.626 185.696 427.956 213.43 442.027C236.494 453.729 258.277 466.231 283.954 472.057C327.889 483.239 367.475 474.955 411.034 468.322C387.082 484.8 366.024 493.868 337.37 498.319C336.415 498.467 335.857 498.878 335.237 499.592C326.786 499.961 317.982 499.646 309.473 499.761C304.492 499.828 299.053 499.848 294.07 499.665C293.004 499.626 290.629 498.623 289.389 498.28C287.723 497.818 286.485 497.569 284.753 497.283C260 493.149 236.213 484.517 214.569 471.813C206.216 466.926 197.003 460.623 188.925 455.267C176.53 446.897 163.857 438.946 150.928 431.428C140.406 425.381 129.593 419.854 118.529 414.868C110.824 411.453 102.889 408.563 95.1585 405.176C90.4787 403.125 86.5709 400.803 82.1014 398.365C94.5372 396.528 104.732 399.196 116.806 401.285C121.192 402.044 125.633 402.38 130.086 403.214C127.23 399.055 124.931 394.223 121.589 390.264C112.192 379.131 102.357 368.585 96.3813 355.093C91.6616 344.437 87.2312 333.436 84.2294 322.311C83.2977 318.923 82.4548 315.512 81.7016 312.08C80.9824 308.761 80.4688 304.145 79.23 301.177C78.8738 300.637 78.4345 299.507 78.4163 298.862C78.2876 294.305 77.4849 263.041 78.8253 261.318Z"/><defs><linearGradient id="gradient_1" gradientUnits="userSpaceOnUse" x1="422.29352" y1="273.91003" x2="279.61957" y2="281.56656"><stop offset="0" stop-color="#FF8B00"/><stop offset="1" stop-color="#FFAB00"/></linearGradient></defs><path fill="url(#gradient_1)" d="M285.796 445.137C287.906 443.499 292.877 440.735 295.325 439.254C302.593 434.86 309.665 430.826 316.699 426.043C349.916 403.458 368.655 366.639 375.794 327.873C382.032 293.115 380.03 257.099 372.294 222.743C370.564 215.37 368.723 207.495 366.262 200.35C365.168 197.177 361.599 191.695 359.832 188.618C356.968 183.742 354.017 178.918 350.979 174.148C350.42 173.253 349.812 172.338 349.28 171.43C342.678 160.159 335.029 150.421 325.557 141.338C318.32 134.322 310.184 128.297 301.363 123.421C299.966 122.648 290.764 118.436 290.443 117.972C291.003 117.885 304.172 120.81 306.175 121.144C350.844 128.611 386.842 169.962 404.927 208.988C411.293 222.534 416.036 236.786 419.054 251.446C419.61 254.113 420.431 262.144 422.464 263.611C423.166 270.364 422.679 280.098 422.805 287.054C422.875 290.876 422.969 301.594 422.427 304.969C421.018 306.441 420.378 311.526 419.941 313.65C419.143 317.652 418.202 321.623 417.12 325.557C412.928 340.537 406.368 354.751 397.689 367.66C377.604 397.875 345.24 428.495 310.291 440.037C305.539 441.612 300.668 442.804 295.726 443.603C292.367 444.156 289.155 444.454 285.796 445.137Z"/><path fill="#FFAC00" d="M247.488 19.2858C249.407 19.2412 251.23 19.185 253.153 19.2733C254.291 22.4923 255.14 25.9682 256.217 29.2311C268.627 66.8447 300.122 66.106 326.58 42.7328C324.824 38.8011 321.863 31.7017 323.634 27.4798C324.788 24.7276 327.962 21.546 330.021 19.3001C332.78 19.2043 334.589 19.2984 337.306 19.4128C339.803 20.5742 344.714 22.6287 345.029 25.6622C345.85 33.5693 336.724 40.4066 332.292 45.8542C328.632 50.3526 327.136 58.516 325.044 63.8968C321.24 74.5803 316.564 93.4351 310.676 102.498C306.284 102.837 299.335 102.634 294.816 102.634L266.55 102.644C240.841 102.663 214.377 103.051 188.769 102.676C187.706 100.446 186.259 95.5402 185.453 93.0141C182.96 85.1996 180.688 77.1442 178.253 69.3113C176.427 63.4346 173.506 53.5689 170.147 48.4753C168.701 46.3268 167.091 44.2936 165.33 42.394C162.995 39.8923 156.441 34.8216 156.203 31.7829C155.899 27.8977 161.85 22.0142 164.324 19.2983C168.443 19.1296 171.572 19.2029 174.856 22.2235C179.168 26.1892 176.715 32.1025 175.767 36.9333C173.572 45.5914 175.09 46.1632 182.012 50.2767C197.756 59.633 218.537 63.8685 232.56 49.1959C238.467 43.0156 242.185 35.4515 244.849 27.3962C245.546 25.2988 246.668 21.0266 247.488 19.2858ZM253.331 95.749C266.512 90.8042 264.458 54.2758 251.776 54.6512C239.233 58.405 239.712 95.4656 253.331 95.749Z"/></svg>